<?xml version="1.0" encoding="utf-8" standalone="no"?>
<!DOCTYPE svg PUBLIC "-//W3C//DTD SVG 1.1//EN"
  "http://www.w3.org/Graphics/SVG/1.1/DTD/svg11.dtd">
<svg xmlns:xlink="http://www.w3.org/1999/xlink" width="712.8pt" height="280.8pt" viewBox="0 0 712.8 280.8" xmlns="http://www.w3.org/2000/svg" version="1.1">
 <metadata>
  <rdf:RDF xmlns:dc="http://purl.org/dc/elements/1.1/" xmlns:cc="http://creativecommons.org/ns#" xmlns:rdf="http://www.w3.org/1999/02/22-rdf-syntax-ns#">
   <cc:Work>
    <dc:type rdf:resource="http://purl.org/dc/dcmitype/StillImage"/>
    <dc:date>2026-04-09T14:39:57.105161</dc:date>
    <dc:format>image/svg+xml</dc:format>
    <dc:creator>
     <cc:Agent>
      <dc:title>Matplotlib v3.10.8, https://matplotlib.org/</dc:title>
     </cc:Agent>
    </dc:creator>
   </cc:Work>
  </rdf:RDF>
 </metadata>
 <defs>
  <style type="text/css">*{stroke-linejoin: round; stroke-linecap: butt}</style>
 </defs>
 <g id="figure_1">
  <g id="patch_1">
   <path d="M 0 280.8 
L 712.8 280.8 
L 712.8 0 
L 0 0 
z
" style="fill: #ffffff"/>
  </g>
  <g id="axes_1">
   <g id="patch_2">
    <path d="M 256.65592 101.504662 
L 256.65592 74.440848 
L 299.923925 74.440848 
L 299.923925 101.504662 
z
" clip-path="url(#pea7be1c164)" style="fill: #f46924"/>
   </g>
   <g id="patch_3">
    <path d="M 256.65592 74.61392 
L 299.923925 74.61392 
L 256.65592 30.813389 
z
" clip-path="url(#pea7be1c164)" style="fill: #f46924"/>
   </g>
   <g id="patch_4">
    <path d="M 299.923925 74.61392 
L 256.65592 30.813389 
L 299.923925 30.813389 
z
" clip-path="url(#pea7be1c164)" style="fill: #f46924; opacity: 0.35"/>
   </g>
   <g id="patch_5">
    <path d="M 334.53833 101.504662 
L 334.53833 76.494872 
L 360.499133 76.494872 
L 360.499133 101.504662 
z
" clip-path="url(#pea7be1c164)" style="fill: #f46924"/>
   </g>
   <g id="patch_6">
    <path d="M 334.53833 76.667944 
L 360.499133 76.667944 
L 334.53833 74.440848 
z
" clip-path="url(#pea7be1c164)" style="fill: #f46924"/>
   </g>
   <g id="patch_7">
    <path d="M 360.499133 76.667944 
L 334.53833 74.440848 
L 360.499133 74.440848 
z
" clip-path="url(#pea7be1c164)" style="fill: #f46924; opacity: 0.35"/>
   </g>
   <g id="patch_8">
    <path d="M 419.343619 87.874696 
L 419.343619 85.970205 
L 445.304422 85.970205 
L 445.304422 87.874696 
z
" clip-path="url(#pea7be1c164)" style="fill: #f46924"/>
   </g>
   <g id="patch_9">
    <path d="M 419.343619 86.143277 
L 445.304422 86.143277 
L 419.343619 85.360571 
z
" clip-path="url(#pea7be1c164)" style="fill: #f46924"/>
   </g>
   <g id="patch_10">
    <path d="M 445.304422 86.143277 
L 419.343619 85.360571 
L 445.304422 85.360571 
z
" clip-path="url(#pea7be1c164)" style="fill: #f46924; opacity: 0.35"/>
   </g>
   <g id="patch_11">
    <path d="M 476.535439 73.093943 
L 476.535439 63.23463 
L 502.496242 63.23463 
L 502.496242 73.093943 
z
" clip-path="url(#pea7be1c164)" style="fill: #f46924"/>
   </g>
   <g id="patch_12">
    <path d="M 476.535439 63.407702 
L 502.496242 63.407702 
L 476.535439 62.822182 
z
" clip-path="url(#pea7be1c164)" style="fill: #f46924"/>
   </g>
   <g id="patch_13">
    <path d="M 502.496242 63.407702 
L 476.535439 62.822182 
L 502.496242 62.822182 
z
" clip-path="url(#pea7be1c164)" style="fill: #f46924; opacity: 0.35"/>
   </g>
   <g id="patch_14">
    <path d="M 462.932052 139.796302 
L 462.932052 122.4891 
L 462.936982 122.4891 
L 462.936982 139.796302 
z
" clip-path="url(#pea7be1c164)" style="fill: #f46924"/>
   </g>
   <g id="patch_15">
    <path d="M 463.105124 139.796302 
L 463.105124 122.4891 
L 462.611624 122.4891 
z
" clip-path="url(#pea7be1c164)" style="fill: #f46924"/>
   </g>
   <g id="patch_16">
    <path d="M 462.611624 122.4891 
L 463.105124 139.796302 
L 462.611624 139.796302 
z
" clip-path="url(#pea7be1c164)" style="fill: #f46924; opacity: 0.35"/>
   </g>
   <g id="patch_17">
    <path d="M 404.521375 170.73347 
L 404.521375 144.772667 
L 417.570176 144.772667 
L 417.570176 170.73347 
z
" clip-path="url(#pea7be1c164)" style="fill: #f46924"/>
   </g>
   <g id="patch_18">
    <path d="M 404.694447 170.73347 
L 404.694447 144.772667 
L 403.767138 144.772667 
z
" clip-path="url(#pea7be1c164)" style="fill: #f46924"/>
   </g>
   <g id="patch_19">
    <path d="M 403.767138 144.772667 
L 404.694447 170.73347 
L 403.767138 170.73347 
z
" clip-path="url(#pea7be1c164)" style="fill: #f46924; opacity: 0.35"/>
   </g>
   <g id="patch_20">
    <path d="M 326.812038 250.06795 
L 326.812038 248.605486 
L 344.11924 248.605486 
L 344.11924 250.06795 
z
" clip-path="url(#pea7be1c164)" style="fill: #f46924"/>
   </g>
   <g id="patch_21">
    <path d="M 326.812038 248.778558 
L 344.11924 248.778558 
L 326.812038 248.442807 
z
" clip-path="url(#pea7be1c164)" style="fill: #f46924"/>
   </g>
   <g id="patch_22">
    <path d="M 344.11924 248.778558 
L 326.812038 248.442807 
L 344.11924 248.442807 
z
" clip-path="url(#pea7be1c164)" style="fill: #f46924; opacity: 0.35"/>
   </g>
   <g id="patch_23">
    <path d="M 326.98511 250.06795 
L 326.98511 248.605486 
L 249.559968 248.605486 
L 249.559968 250.06795 
z
" clip-path="url(#pea7be1c164)" style="fill: #f46924"/>
   </g>
   <g id="patch_24">
    <path d="M 230.963373 231.298284 
C 230.963373 236.2744 232.942236 241.051797 236.460881 244.570442 
C 239.979526 248.089088 244.756924 250.06795 249.73304 250.06795 
L 249.73304 248.605486 
C 245.144645 248.605486 240.739485 246.780809 237.495 243.536323 
C 234.250515 240.291838 232.425838 235.886679 232.425838 231.298284 
z
" clip-path="url(#pea7be1c164)" style="fill: #f46924"/>
   </g>
   <g id="patch_25">
    <path d="M 230.963373 231.471356 
L 232.425838 231.471356 
L 232.425838 118.638792 
L 230.963373 118.638792 
z
" clip-path="url(#pea7be1c164)" style="fill: #f46924"/>
   </g>
   <g id="patch_26">
    <path d="M 249.73304 100.042197 
C 244.756924 100.042197 239.979526 102.02106 236.460881 105.539705 
C 232.942236 109.058351 230.963373 113.835748 230.963373 118.811864 
L 232.425838 118.811864 
C 232.425838 114.223469 234.250515 109.818309 237.495 106.573824 
C 240.739485 103.329339 245.144645 101.504662 249.73304 101.504662 
z
" clip-path="url(#pea7be1c164)" style="fill: #f46924"/>
   </g>
   <g id="patch_27">
    <path d="M 249.559968 101.504662 
L 249.559968 100.042197 
L 256.828992 100.042197 
L 256.828992 101.504662 
z
" clip-path="url(#pea7be1c164)" style="fill: #f46924"/>
   </g>
   <g id="patch_28">
    <path d="M 180.504232 100.215269 
L 180.504232 30.986461 
L 256.828992 30.986461 
L 256.828992 100.215269 
z
" clip-path="url(#pea7be1c164)" style="fill: #f46924"/>
   </g>
   <g id="patch_29">
    <path d="M 299.750853 101.504662 
L 299.750853 74.440848 
L 334.711402 74.440848 
L 334.711402 101.504662 
z
" clip-path="url(#pea7be1c164)" style="fill: #f46924"/>
   </g>
   <g id="patch_30">
    <path d="M 360.326061 101.504662 
L 360.326061 87.701624 
L 386.633008 87.701624 
L 386.633008 101.504662 
z
" clip-path="url(#pea7be1c164)" style="fill: #f46924"/>
   </g>
   <g id="patch_31">
    <path d="M 417.570176 118.811864 
C 417.570176 110.56408 414.290261 102.645666 408.458197 96.813602 
C 402.626133 90.981538 394.70772 87.701624 386.459936 87.701624 
L 386.459936 101.504662 
C 391.048331 101.504662 395.45349 103.329339 398.697975 106.573824 
C 401.942461 109.818309 403.767138 114.223469 403.767138 118.811864 
z
" clip-path="url(#pea7be1c164)" style="fill: #f46924"/>
   </g>
   <g id="patch_32">
    <path d="M 403.767138 118.638792 
L 417.570176 118.638792 
L 417.570176 144.945739 
L 403.767138 144.945739 
z
" clip-path="url(#pea7be1c164)" style="fill: #f46924"/>
   </g>
   <g id="patch_33">
    <path d="M 360.326061 87.874696 
L 360.326061 85.360571 
L 419.516691 85.360571 
L 419.516691 87.874696 
z
" clip-path="url(#pea7be1c164)" style="fill: #f46924"/>
   </g>
   <g id="patch_34">
    <path d="M 445.13135 87.971625 
L 445.13135 87.452409 
L 454.131095 87.452409 
L 454.131095 87.971625 
z
" clip-path="url(#pea7be1c164)" style="fill: #f46924"/>
   </g>
   <g id="patch_35">
    <path d="M 463.130841 96.625226 
C 463.130841 94.193377 462.163762 91.858642 460.444185 90.139065 
C 458.724607 88.419488 456.389873 87.452409 453.958023 87.452409 
L 453.958023 87.971625 
C 456.252221 87.971625 458.454801 88.883964 460.077043 90.506206 
C 461.699286 92.128449 462.611624 94.331029 462.611624 96.625226 
z
" clip-path="url(#pea7be1c164)" style="fill: #f46924"/>
   </g>
   <g id="patch_36">
    <path d="M 462.611624 96.452154 
L 463.130841 96.452154 
L 463.130841 122.759101 
L 462.611624 122.759101 
z
" clip-path="url(#pea7be1c164)" style="fill: #f46924"/>
   </g>
   <g id="patch_37">
    <path d="M 445.13135 87.722411 
L 445.13135 86.143277 
L 456.841996 86.143277 
L 456.841996 87.722411 
z
" clip-path="url(#pea7be1c164)" style="fill: #f46924"/>
   </g>
   <g id="patch_38">
    <path d="M 456.668924 87.722411 
C 458.005254 87.722411 459.288219 87.190989 460.233147 86.246061 
C 461.178076 85.301132 461.709497 84.018167 461.709497 82.681837 
L 460.130364 82.681837 
C 460.130364 83.599516 459.765429 84.480548 459.116532 85.129445 
C 458.467635 85.778342 457.586603 86.143277 456.668924 86.143277 
z
" clip-path="url(#pea7be1c164)" style="fill: #f46924"/>
   </g>
   <g id="patch_39">
    <path d="M 460.130364 82.854909 
L 461.709497 82.854909 
L 461.709497 76.382311 
L 460.130364 76.382311 
z
" clip-path="url(#pea7be1c164)" style="fill: #f46924"/>
   </g>
   <g id="patch_40">
    <path d="M 465.170938 71.51481 
C 463.834607 71.51481 462.551642 72.046231 461.606714 72.991159 
C 460.661786 73.936088 460.130364 75.219053 460.130364 76.555383 
L 461.709497 76.555383 
C 461.709497 75.637704 462.074433 74.756672 462.72333 74.107775 
C 463.372227 73.458878 464.253259 73.093943 465.170938 73.093943 
z
" clip-path="url(#pea7be1c164)" style="fill: #f46924"/>
   </g>
   <g id="patch_41">
    <path d="M 464.997866 73.093943 
L 464.997866 71.51481 
L 476.708511 71.51481 
L 476.708511 73.093943 
z
" clip-path="url(#pea7be1c164)" style="fill: #f46924"/>
   </g>
   <g id="patch_42">
    <path d="M 360.326061 85.533643 
L 360.326061 76.841016 
L 386.633008 76.841016 
L 386.633008 85.533643 
z
" clip-path="url(#pea7be1c164)" style="fill: #f46924"/>
   </g>
   <g id="patch_43">
    <path d="M 386.459936 85.533643 
C 391.058677 85.533643 395.47377 83.704852 398.725571 80.45305 
C 401.977373 77.201249 403.806164 72.786156 403.806164 68.187415 
L 395.113537 68.187415 
C 395.113537 70.481612 394.201198 72.684192 392.578956 74.306435 
C 390.956713 75.928677 388.754133 76.841016 386.459936 76.841016 
z
" clip-path="url(#pea7be1c164)" style="fill: #f46924"/>
   </g>
   <g id="patch_44">
    <path d="M 395.113537 68.360487 
L 403.806164 68.360487 
L 403.806164 50.707141 
L 395.113537 50.707141 
z
" clip-path="url(#pea7be1c164)" style="fill: #f46924"/>
   </g>
   <g id="patch_45">
    <path d="M 412.459765 33.533984 
C 407.861024 33.533984 403.445931 35.362776 400.194129 38.614577 
C 396.942328 41.866378 395.113537 46.281471 395.113537 50.880213 
L 403.806164 50.880213 
C 403.806164 48.586015 404.718502 46.383435 406.340745 44.761193 
C 407.962988 43.13895 410.165568 42.226612 412.459765 42.226612 
z
" clip-path="url(#pea7be1c164)" style="fill: #f46924"/>
   </g>
   <g id="patch_46">
    <path d="M 412.286693 42.226612 
L 412.286693 33.533984 
L 447.247241 33.533984 
L 447.247241 42.226612 
z
" clip-path="url(#pea7be1c164)" style="fill: #f46924"/>
   </g>
   <g id="patch_47">
    <path d="M 464.420398 50.880213 
C 464.420398 46.281471 462.591606 41.866378 459.339805 38.614577 
C 456.088004 35.362776 451.672911 33.533984 447.074169 33.533984 
L 447.074169 42.226612 
C 449.368367 42.226612 451.570946 43.13895 453.193189 44.761193 
C 454.815432 46.383435 455.72777 48.586015 455.72777 50.880213 
z
" clip-path="url(#pea7be1c164)" style="fill: #f46924"/>
   </g>
   <g id="patch_48">
    <path d="M 455.72777 50.707141 
L 464.420398 50.707141 
L 464.420398 54.514725 
L 455.72777 54.514725 
z
" clip-path="url(#pea7be1c164)" style="fill: #f46924"/>
   </g>
   <g id="patch_49">
    <path d="M 455.72777 54.341653 
C 455.72777 58.940395 457.556562 63.355488 460.808363 66.607289 
C 464.060164 69.85909 468.475257 71.687882 473.073999 71.687882 
L 473.073999 62.995254 
C 470.779801 62.995254 468.577221 62.082916 466.954979 60.460673 
C 465.332736 58.83843 464.420398 56.635851 464.420398 54.341653 
z
" clip-path="url(#pea7be1c164)" style="fill: #f46924"/>
   </g>
   <g id="patch_50">
    <path d="M 472.900927 71.687882 
L 472.900927 62.995254 
L 476.708511 62.995254 
L 476.708511 71.687882 
z
" clip-path="url(#pea7be1c164)" style="fill: #f46924"/>
   </g>
   <g id="patch_51">
    <path d="M 502.32317 73.093943 
L 502.32317 63.23463 
L 526.726325 63.23463 
L 526.726325 73.093943 
z
" clip-path="url(#pea7be1c164)" style="fill: #f46924"/>
   </g>
   <g id="patch_52">
    <path d="M 462.674909 139.62323 
L 463.194125 139.62323 
L 463.194125 232.928891 
L 462.674909 232.928891 
z
" clip-path="url(#pea7be1c164)" style="fill: #f46924"/>
   </g>
   <g id="patch_53">
    <path d="M 445.367707 250.582237 
C 450.093754 250.582237 454.631068 248.702819 457.972888 245.361 
C 461.314708 242.01918 463.194125 237.481865 463.194125 232.755819 
L 462.674909 232.755819 
C 462.674909 237.344214 460.850232 241.749373 457.605747 244.993859 
C 454.361262 248.238344 449.956102 250.063021 445.367707 250.063021 
z
" clip-path="url(#pea7be1c164)" style="fill: #f46924"/>
   </g>
   <g id="patch_54">
    <path d="M 445.540779 250.582237 
L 445.540779 250.063021 
L 343.689025 250.063021 
L 343.689025 250.582237 
z
" clip-path="url(#pea7be1c164)" style="fill: #f46924"/>
   </g>
   <g id="patch_55">
    <path d="M 406.141589 170.560398 
L 417.570176 170.560398 
L 417.570176 196.867345 
L 406.141589 196.867345 
z
" clip-path="url(#pea7be1c164)" style="fill: #f46924"/>
   </g>
   <g id="patch_56">
    <path d="M 406.141589 196.694273 
C 406.141589 202.018358 408.258829 207.129828 412.023525 210.894524 
C 415.788222 214.65922 420.899692 216.776461 426.223777 216.776461 
L 426.223777 205.347874 
C 423.929579 205.347874 421.726999 204.435535 420.104757 202.813293 
C 418.482514 201.19105 417.570176 198.98847 417.570176 196.694273 
z
" clip-path="url(#pea7be1c164)" style="fill: #f46924"/>
   </g>
   <g id="patch_57">
    <path d="M 426.050704 216.776461 
L 426.050704 205.347874 
L 435.05045 205.347874 
L 435.05045 216.776461 
z
" clip-path="url(#pea7be1c164)" style="fill: #f46924"/>
   </g>
   <g id="patch_58">
    <path d="M 454.959565 225.430062 
C 454.959565 220.105977 452.842325 214.994507 449.077629 211.229811 
C 445.312932 207.465114 440.201462 205.347874 434.877378 205.347874 
L 434.877378 216.776461 
C 437.171575 216.776461 439.374155 217.688799 440.996397 219.311042 
C 442.61864 220.933284 443.530979 223.135864 443.530979 225.430062 
z
" clip-path="url(#pea7be1c164)" style="fill: #f46924"/>
   </g>
   <g id="patch_59">
    <path d="M 443.530979 225.25699 
L 454.959565 225.25699 
L 454.959565 234.256735 
L 443.530979 234.256735 
z
" clip-path="url(#pea7be1c164)" style="fill: #f46924"/>
   </g>
   <g id="patch_60">
    <path d="M 404.694447 170.560398 
L 406.314661 170.560398 
L 406.314661 240.13535 
L 404.694447 240.13535 
z
" clip-path="url(#pea7be1c164)" style="fill: #f46924"/>
   </g>
   <g id="patch_61">
    <path d="M 396.040846 250.236093 
C 398.764586 250.236093 401.379555 249.152937 403.30553 247.226962 
C 405.231505 245.300987 406.314661 242.686018 406.314661 239.962278 
L 404.694447 239.962278 
C 404.694447 242.256475 403.782109 244.459055 402.159866 246.081298 
C 400.537623 247.70354 398.335043 248.615879 396.040846 248.615879 
z
" clip-path="url(#pea7be1c164)" style="fill: #f46924"/>
   </g>
   <g id="patch_62">
    <path d="M 396.213918 250.236093 
L 396.213918 248.615879 
L 343.946168 248.615879 
L 343.946168 250.236093 
z
" clip-path="url(#pea7be1c164)" style="fill: #f46924"/>
   </g>
   <g id="text_1">
    <!-- A -->
    <g transform="translate(275.211642 90.456192) scale(0.09 -0.09)">
     <defs>
      <path id="DejaVuSans-41" d="M 2188 4044 
L 1331 1722 
L 3047 1722 
L 2188 4044 
z
M 1831 4666 
L 2547 4666 
L 4325 0 
L 3669 0 
L 3244 1197 
L 1141 1197 
L 716 0 
L 50 0 
L 1831 4666 
z
" transform="scale(0.015625)"/>
     </defs>
     <use xlink:href="#DejaVuSans-41"/>
    </g>
   </g>
   <g id="text_2">
    <!-- I = -26550 -->
    <g transform="translate(265.301814 29.486052) scale(0.05 -0.05)">
     <defs>
      <path id="DejaVuSans-49" d="M 628 4666 
L 1259 4666 
L 1259 0 
L 628 0 
L 628 4666 
z
" transform="scale(0.015625)"/>
      <path id="DejaVuSans-20" transform="scale(0.015625)"/>
      <path id="DejaVuSans-3d" d="M 678 2906 
L 4684 2906 
L 4684 2381 
L 678 2381 
L 678 2906 
z
M 678 1631 
L 4684 1631 
L 4684 1100 
L 678 1100 
L 678 1631 
z
" transform="scale(0.015625)"/>
      <path id="DejaVuSans-2d" d="M 313 2009 
L 1997 2009 
L 1997 1497 
L 313 1497 
L 313 2009 
z
" transform="scale(0.015625)"/>
      <path id="DejaVuSans-32" d="M 1228 531 
L 3431 531 
L 3431 0 
L 469 0 
L 469 531 
Q 828 903 1448 1529 
Q 2069 2156 2228 2338 
Q 2531 2678 2651 2914 
Q 2772 3150 2772 3378 
Q 2772 3750 2511 3984 
Q 2250 4219 1831 4219 
Q 1534 4219 1204 4116 
Q 875 4013 500 3803 
L 500 4441 
Q 881 4594 1212 4672 
Q 1544 4750 1819 4750 
Q 2544 4750 2975 4387 
Q 3406 4025 3406 3419 
Q 3406 3131 3298 2873 
Q 3191 2616 2906 2266 
Q 2828 2175 2409 1742 
Q 1991 1309 1228 531 
z
" transform="scale(0.015625)"/>
      <path id="DejaVuSans-36" d="M 2113 2584 
Q 1688 2584 1439 2293 
Q 1191 2003 1191 1497 
Q 1191 994 1439 701 
Q 1688 409 2113 409 
Q 2538 409 2786 701 
Q 3034 994 3034 1497 
Q 3034 2003 2786 2293 
Q 2538 2584 2113 2584 
z
M 3366 4563 
L 3366 3988 
Q 3128 4100 2886 4159 
Q 2644 4219 2406 4219 
Q 1781 4219 1451 3797 
Q 1122 3375 1075 2522 
Q 1259 2794 1537 2939 
Q 1816 3084 2150 3084 
Q 2853 3084 3261 2657 
Q 3669 2231 3669 1497 
Q 3669 778 3244 343 
Q 2819 -91 2113 -91 
Q 1303 -91 875 529 
Q 447 1150 447 2328 
Q 447 3434 972 4092 
Q 1497 4750 2381 4750 
Q 2619 4750 2861 4703 
Q 3103 4656 3366 4563 
z
" transform="scale(0.015625)"/>
      <path id="DejaVuSans-35" d="M 691 4666 
L 3169 4666 
L 3169 4134 
L 1269 4134 
L 1269 2991 
Q 1406 3038 1543 3061 
Q 1681 3084 1819 3084 
Q 2600 3084 3056 2656 
Q 3513 2228 3513 1497 
Q 3513 744 3044 326 
Q 2575 -91 1722 -91 
Q 1428 -91 1123 -41 
Q 819 9 494 109 
L 494 744 
Q 775 591 1075 516 
Q 1375 441 1709 441 
Q 2250 441 2565 725 
Q 2881 1009 2881 1497 
Q 2881 1984 2565 2268 
Q 2250 2553 1709 2553 
Q 1456 2553 1204 2497 
Q 953 2441 691 2322 
L 691 4666 
z
" transform="scale(0.015625)"/>
      <path id="DejaVuSans-30" d="M 2034 4250 
Q 1547 4250 1301 3770 
Q 1056 3291 1056 2328 
Q 1056 1369 1301 889 
Q 1547 409 2034 409 
Q 2525 409 2770 889 
Q 3016 1369 3016 2328 
Q 3016 3291 2770 3770 
Q 2525 4250 2034 4250 
z
M 2034 4750 
Q 2819 4750 3233 4129 
Q 3647 3509 3647 2328 
Q 3647 1150 3233 529 
Q 2819 -91 2034 -91 
Q 1250 -91 836 529 
Q 422 1150 422 2328 
Q 422 3509 836 4129 
Q 1250 4750 2034 4750 
z
" transform="scale(0.015625)"/>
     </defs>
     <use xlink:href="#DejaVuSans-49"/>
     <use xlink:href="#DejaVuSans-20" transform="translate(29.492188 0)"/>
     <use xlink:href="#DejaVuSans-3d" transform="translate(61.279297 0)"/>
     <use xlink:href="#DejaVuSans-20" transform="translate(145.068359 0)"/>
     <use xlink:href="#DejaVuSans-2d" transform="translate(176.855469 0)"/>
     <use xlink:href="#DejaVuSans-32" transform="translate(212.939453 0)"/>
     <use xlink:href="#DejaVuSans-36" transform="translate(276.5625 0)"/>
     <use xlink:href="#DejaVuSans-35" transform="translate(340.185547 0)"/>
     <use xlink:href="#DejaVuSans-35" transform="translate(403.808594 0)"/>
     <use xlink:href="#DejaVuSans-30" transform="translate(467.431641 0)"/>
    </g>
   </g>
   <g id="text_3">
    <!-- B -->
    <g transform="translate(344.431309 91.483204) scale(0.09 -0.09)">
     <defs>
      <path id="DejaVuSans-42" d="M 1259 2228 
L 1259 519 
L 2272 519 
Q 2781 519 3026 730 
Q 3272 941 3272 1375 
Q 3272 1813 3026 2020 
Q 2781 2228 2272 2228 
L 1259 2228 
z
M 1259 4147 
L 1259 2741 
L 2194 2741 
Q 2656 2741 2882 2914 
Q 3109 3088 3109 3444 
Q 3109 3797 2882 3972 
Q 2656 4147 2194 4147 
L 1259 4147 
z
M 628 4666 
L 2241 4666 
Q 2963 4666 3353 4366 
Q 3744 4066 3744 3513 
Q 3744 3084 3544 2831 
Q 3344 2578 2956 2516 
Q 3422 2416 3680 2098 
Q 3938 1781 3938 1306 
Q 3938 681 3513 340 
Q 3088 0 2303 0 
L 628 0 
L 628 4666 
z
" transform="scale(0.015625)"/>
     </defs>
     <use xlink:href="#DejaVuSans-42"/>
    </g>
   </g>
   <g id="text_4">
    <!-- I = -1250 -->
    <g transform="translate(336.35201 71.37074) scale(0.05 -0.05)">
     <defs>
      <path id="DejaVuSans-31" d="M 794 531 
L 1825 531 
L 1825 4091 
L 703 3866 
L 703 4441 
L 1819 4666 
L 2450 4666 
L 2450 531 
L 3481 531 
L 3481 0 
L 794 0 
L 794 531 
z
" transform="scale(0.015625)"/>
     </defs>
     <use xlink:href="#DejaVuSans-49"/>
     <use xlink:href="#DejaVuSans-20" transform="translate(29.492188 0)"/>
     <use xlink:href="#DejaVuSans-3d" transform="translate(61.279297 0)"/>
     <use xlink:href="#DejaVuSans-20" transform="translate(145.068359 0)"/>
     <use xlink:href="#DejaVuSans-2d" transform="translate(176.855469 0)"/>
     <use xlink:href="#DejaVuSans-31" transform="translate(212.939453 0)"/>
     <use xlink:href="#DejaVuSans-32" transform="translate(276.5625 0)"/>
     <use xlink:href="#DejaVuSans-35" transform="translate(340.185547 0)"/>
     <use xlink:href="#DejaVuSans-30" transform="translate(403.808594 0)"/>
    </g>
   </g>
   <g id="text_5">
    <!-- C -->
    <g transform="translate(429.181755 96.328769) scale(0.09 -0.09)">
     <defs>
      <path id="DejaVuSans-43" d="M 4122 4306 
L 4122 3641 
Q 3803 3938 3442 4084 
Q 3081 4231 2675 4231 
Q 1875 4231 1450 3742 
Q 1025 3253 1025 2328 
Q 1025 1406 1450 917 
Q 1875 428 2675 428 
Q 3081 428 3442 575 
Q 3803 722 4122 1019 
L 4122 359 
Q 3791 134 3420 21 
Q 3050 -91 2638 -91 
Q 1578 -91 968 557 
Q 359 1206 359 2328 
Q 359 3453 968 4101 
Q 1578 4750 2638 4750 
Q 3056 4750 3426 4639 
Q 3797 4528 4122 4306 
z
" transform="scale(0.015625)"/>
     </defs>
     <use xlink:href="#DejaVuSans-43"/>
    </g>
   </g>
   <g id="text_6">
    <!-- I = -371 -->
    <g transform="translate(422.747924 83.53972) scale(0.05 -0.05)">
     <defs>
      <path id="DejaVuSans-33" d="M 2597 2516 
Q 3050 2419 3304 2112 
Q 3559 1806 3559 1356 
Q 3559 666 3084 287 
Q 2609 -91 1734 -91 
Q 1441 -91 1130 -33 
Q 819 25 488 141 
L 488 750 
Q 750 597 1062 519 
Q 1375 441 1716 441 
Q 2309 441 2620 675 
Q 2931 909 2931 1356 
Q 2931 1769 2642 2001 
Q 2353 2234 1838 2234 
L 1294 2234 
L 1294 2753 
L 1863 2753 
Q 2328 2753 2575 2939 
Q 2822 3125 2822 3475 
Q 2822 3834 2567 4026 
Q 2313 4219 1838 4219 
Q 1578 4219 1281 4162 
Q 984 4106 628 3988 
L 628 4550 
Q 988 4650 1302 4700 
Q 1616 4750 1894 4750 
Q 2613 4750 3031 4423 
Q 3450 4097 3450 3541 
Q 3450 3153 3228 2886 
Q 3006 2619 2597 2516 
z
" transform="scale(0.015625)"/>
      <path id="DejaVuSans-37" d="M 525 4666 
L 3525 4666 
L 3525 4397 
L 1831 0 
L 1172 0 
L 2766 4134 
L 525 4134 
L 525 4666 
z
" transform="scale(0.015625)"/>
     </defs>
     <use xlink:href="#DejaVuSans-49"/>
     <use xlink:href="#DejaVuSans-20" transform="translate(29.492188 0)"/>
     <use xlink:href="#DejaVuSans-3d" transform="translate(61.279297 0)"/>
     <use xlink:href="#DejaVuSans-20" transform="translate(145.068359 0)"/>
     <use xlink:href="#DejaVuSans-2d" transform="translate(176.855469 0)"/>
     <use xlink:href="#DejaVuSans-33" transform="translate(212.939453 0)"/>
     <use xlink:href="#DejaVuSans-37" transform="translate(276.5625 0)"/>
     <use xlink:href="#DejaVuSans-31" transform="translate(340.185547 0)"/>
    </g>
   </g>
   <g id="text_7">
    <!-- D -->
    <g transform="translate(486.05084 70.647724) scale(0.09 -0.09)">
     <defs>
      <path id="DejaVuSans-44" d="M 1259 4147 
L 1259 519 
L 2022 519 
Q 2988 519 3436 956 
Q 3884 1394 3884 2338 
Q 3884 3275 3436 3711 
Q 2988 4147 2022 4147 
L 1259 4147 
z
M 628 4666 
L 1925 4666 
Q 3281 4666 3915 4102 
Q 4550 3538 4550 2338 
Q 4550 1131 3912 565 
Q 3275 0 1925 0 
L 628 0 
L 628 4666 
z
" transform="scale(0.015625)"/>
     </defs>
     <use xlink:href="#DejaVuSans-44"/>
    </g>
   </g>
   <g id="text_8">
    <!-- I = -251 -->
    <g transform="translate(479.939744 60.935602) scale(0.05 -0.05)">
     <use xlink:href="#DejaVuSans-49"/>
     <use xlink:href="#DejaVuSans-20" transform="translate(29.492188 0)"/>
     <use xlink:href="#DejaVuSans-3d" transform="translate(61.279297 0)"/>
     <use xlink:href="#DejaVuSans-20" transform="translate(145.068359 0)"/>
     <use xlink:href="#DejaVuSans-2d" transform="translate(176.855469 0)"/>
     <use xlink:href="#DejaVuSans-32" transform="translate(212.939453 0)"/>
     <use xlink:href="#DejaVuSans-35" transform="translate(276.5625 0)"/>
     <use xlink:href="#DejaVuSans-31" transform="translate(340.185547 0)"/>
    </g>
   </g>
   <g id="text_9">
    <!-- E -->
    <g transform="translate(460.091079 133.626138) scale(0.09 -0.09)">
     <defs>
      <path id="DejaVuSans-45" d="M 628 4666 
L 3578 4666 
L 3578 4134 
L 1259 4134 
L 1259 2753 
L 3481 2753 
L 3481 2222 
L 1259 2222 
L 1259 531 
L 3634 531 
L 3634 0 
L 628 0 
L 628 4666 
z
" transform="scale(0.015625)"/>
     </defs>
     <use xlink:href="#DejaVuSans-45"/>
    </g>
   </g>
   <g id="text_10">
    <!-- I = -195 -->
    <g transform="translate(441.604203 120.868872) scale(0.05 -0.05)">
     <defs>
      <path id="DejaVuSans-39" d="M 703 97 
L 703 672 
Q 941 559 1184 500 
Q 1428 441 1663 441 
Q 2288 441 2617 861 
Q 2947 1281 2994 2138 
Q 2813 1869 2534 1725 
Q 2256 1581 1919 1581 
Q 1219 1581 811 2004 
Q 403 2428 403 3163 
Q 403 3881 828 4315 
Q 1253 4750 1959 4750 
Q 2769 4750 3195 4129 
Q 3622 3509 3622 2328 
Q 3622 1225 3098 567 
Q 2575 -91 1691 -91 
Q 1453 -91 1209 -44 
Q 966 3 703 97 
z
M 1959 2075 
Q 2384 2075 2632 2365 
Q 2881 2656 2881 3163 
Q 2881 3666 2632 3958 
Q 2384 4250 1959 4250 
Q 1534 4250 1286 3958 
Q 1038 3666 1038 3163 
Q 1038 2656 1286 2365 
Q 1534 2075 1959 2075 
z
" transform="scale(0.015625)"/>
     </defs>
     <use xlink:href="#DejaVuSans-49"/>
     <use xlink:href="#DejaVuSans-20" transform="translate(29.492188 0)"/>
     <use xlink:href="#DejaVuSans-3d" transform="translate(61.279297 0)"/>
     <use xlink:href="#DejaVuSans-20" transform="translate(145.068359 0)"/>
     <use xlink:href="#DejaVuSans-2d" transform="translate(176.855469 0)"/>
     <use xlink:href="#DejaVuSans-31" transform="translate(212.939453 0)"/>
     <use xlink:href="#DejaVuSans-39" transform="translate(276.5625 0)"/>
     <use xlink:href="#DejaVuSans-35" transform="translate(340.185547 0)"/>
    </g>
   </g>
   <g id="text_11">
    <!-- F -->
    <g transform="translate(408.457572 160.236506) scale(0.09 -0.09)">
     <defs>
      <path id="DejaVuSans-46" d="M 628 4666 
L 3309 4666 
L 3309 4134 
L 1259 4134 
L 1259 2759 
L 3109 2759 
L 3109 2228 
L 1259 2228 
L 1259 0 
L 628 0 
L 628 4666 
z
" transform="scale(0.015625)"/>
     </defs>
     <use xlink:href="#DejaVuSans-46"/>
    </g>
   </g>
   <g id="text_12">
    <!-- I = -459 -->
    <g transform="translate(383.596607 179.036038) scale(0.05 -0.05)">
     <defs>
      <path id="DejaVuSans-34" d="M 2419 4116 
L 825 1625 
L 2419 1625 
L 2419 4116 
z
M 2253 4666 
L 3047 4666 
L 3047 1625 
L 3713 1625 
L 3713 1100 
L 3047 1100 
L 3047 0 
L 2419 0 
L 2419 1100 
L 313 1100 
L 313 1709 
L 2253 4666 
z
" transform="scale(0.015625)"/>
     </defs>
     <use xlink:href="#DejaVuSans-49"/>
     <use xlink:href="#DejaVuSans-20" transform="translate(29.492188 0)"/>
     <use xlink:href="#DejaVuSans-3d" transform="translate(61.279297 0)"/>
     <use xlink:href="#DejaVuSans-20" transform="translate(145.068359 0)"/>
     <use xlink:href="#DejaVuSans-2d" transform="translate(176.855469 0)"/>
     <use xlink:href="#DejaVuSans-34" transform="translate(212.939453 0)"/>
     <use xlink:href="#DejaVuSans-35" transform="translate(276.5625 0)"/>
     <use xlink:href="#DejaVuSans-39" transform="translate(340.185547 0)"/>
    </g>
   </g>
   <g id="text_13">
    <!-- G -->
    <g transform="translate(331.978842 257.704604) scale(0.09 -0.09)">
     <defs>
      <path id="DejaVuSans-47" d="M 3809 666 
L 3809 1919 
L 2778 1919 
L 2778 2438 
L 4434 2438 
L 4434 434 
Q 4069 175 3628 42 
Q 3188 -91 2688 -91 
Q 1594 -91 976 548 
Q 359 1188 359 2328 
Q 359 3472 976 4111 
Q 1594 4750 2688 4750 
Q 3144 4750 3555 4637 
Q 3966 4525 4313 4306 
L 4313 3634 
Q 3963 3931 3569 4081 
Q 3175 4231 2741 4231 
Q 1884 4231 1454 3753 
Q 1025 3275 1025 2328 
Q 1025 1384 1454 906 
Q 1884 428 2741 428 
Q 3075 428 3337 486 
Q 3600 544 3809 666 
z
" transform="scale(0.015625)"/>
     </defs>
     <use xlink:href="#DejaVuSans-47"/>
    </g>
   </g>
   <g id="text_14">
    <!-- I = -99 -->
    <g transform="translate(308.384555 246.472971) scale(0.05 -0.05)">
     <use xlink:href="#DejaVuSans-49"/>
     <use xlink:href="#DejaVuSans-20" transform="translate(29.492188 0)"/>
     <use xlink:href="#DejaVuSans-3d" transform="translate(61.279297 0)"/>
     <use xlink:href="#DejaVuSans-20" transform="translate(145.068359 0)"/>
     <use xlink:href="#DejaVuSans-2d" transform="translate(176.855469 0)"/>
     <use xlink:href="#DejaVuSans-39" transform="translate(212.939453 0)"/>
     <use xlink:href="#DejaVuSans-39" transform="translate(276.5625 0)"/>
    </g>
   </g>
   <g id="text_15">
    <!-- 890 -->
    <g transform="translate(228.15807 180.781324) rotate(-90) scale(0.06 -0.06)">
     <defs>
      <path id="DejaVuSans-38" d="M 2034 2216 
Q 1584 2216 1326 1975 
Q 1069 1734 1069 1313 
Q 1069 891 1326 650 
Q 1584 409 2034 409 
Q 2484 409 2743 651 
Q 3003 894 3003 1313 
Q 3003 1734 2745 1975 
Q 2488 2216 2034 2216 
z
M 1403 2484 
Q 997 2584 770 2862 
Q 544 3141 544 3541 
Q 544 4100 942 4425 
Q 1341 4750 2034 4750 
Q 2731 4750 3128 4425 
Q 3525 4100 3525 3541 
Q 3525 3141 3298 2862 
Q 3072 2584 2669 2484 
Q 3125 2378 3379 2068 
Q 3634 1759 3634 1313 
Q 3634 634 3220 271 
Q 2806 -91 2034 -91 
Q 1263 -91 848 271 
Q 434 634 434 1313 
Q 434 1759 690 2068 
Q 947 2378 1403 2484 
z
M 1172 3481 
Q 1172 3119 1398 2916 
Q 1625 2713 2034 2713 
Q 2441 2713 2670 2916 
Q 2900 3119 2900 3481 
Q 2900 3844 2670 4047 
Q 2441 4250 2034 4250 
Q 1625 4250 1398 4047 
Q 1172 3844 1172 3481 
z
" transform="scale(0.015625)"/>
     </defs>
     <use xlink:href="#DejaVuSans-38"/>
     <use xlink:href="#DejaVuSans-39" transform="translate(63.623047 0)"/>
     <use xlink:href="#DejaVuSans-30" transform="translate(127.246094 0)"/>
    </g>
   </g>
   <g id="text_16">
    <!-- 42130 -->
    <g transform="translate(212.497766 67.25649) scale(0.06 -0.06)">
     <use xlink:href="#DejaVuSans-34"/>
     <use xlink:href="#DejaVuSans-32" transform="translate(63.623047 0)"/>
     <use xlink:href="#DejaVuSans-31" transform="translate(127.246094 0)"/>
     <use xlink:href="#DejaVuSans-33" transform="translate(190.869141 0)"/>
     <use xlink:href="#DejaVuSans-30" transform="translate(254.492188 0)"/>
    </g>
   </g>
   <g id="text_17">
    <!-- 16470 -->
    <g transform="translate(307.687377 89.62838) scale(0.06 -0.06)">
     <use xlink:href="#DejaVuSans-31"/>
     <use xlink:href="#DejaVuSans-36" transform="translate(63.623047 0)"/>
     <use xlink:href="#DejaVuSans-34" transform="translate(127.246094 0)"/>
     <use xlink:href="#DejaVuSans-37" transform="translate(190.869141 0)"/>
     <use xlink:href="#DejaVuSans-30" transform="translate(254.492188 0)"/>
    </g>
   </g>
   <g id="text_18">
    <!-- 8400 -->
    <g transform="translate(412.518715 129.929666) rotate(-90) scale(0.06 -0.06)">
     <use xlink:href="#DejaVuSans-38"/>
     <use xlink:href="#DejaVuSans-34" transform="translate(63.623047 0)"/>
     <use xlink:href="#DejaVuSans-30" transform="translate(127.246094 0)"/>
     <use xlink:href="#DejaVuSans-30" transform="translate(190.869141 0)"/>
    </g>
   </g>
   <g id="text_19">
    <!-- 1530 -->
    <g transform="translate(401.324298 84.811818) scale(0.06 -0.06)">
     <use xlink:href="#DejaVuSans-31"/>
     <use xlink:href="#DejaVuSans-35" transform="translate(63.623047 0)"/>
     <use xlink:href="#DejaVuSans-33" transform="translate(127.246094 0)"/>
     <use xlink:href="#DejaVuSans-30" transform="translate(190.869141 0)"/>
    </g>
   </g>
   <g id="text_20">
    <!-- 198 -->
    <g transform="translate(464.526857 110.139717) rotate(-90) scale(0.06 -0.06)">
     <use xlink:href="#DejaVuSans-31"/>
     <use xlink:href="#DejaVuSans-39" transform="translate(63.623047 0)"/>
     <use xlink:href="#DejaVuSans-38" transform="translate(127.246094 0)"/>
    </g>
   </g>
   <g id="text_21">
    <!-- 961 -->
    <g transform="translate(462.567625 88.588469) scale(0.06 -0.06)">
     <use xlink:href="#DejaVuSans-39"/>
     <use xlink:href="#DejaVuSans-36" transform="translate(63.623047 0)"/>
     <use xlink:href="#DejaVuSans-31" transform="translate(127.246094 0)"/>
    </g>
   </g>
   <g id="text_22">
    <!-- 5290 -->
    <g transform="translate(422.131967 39.535923) scale(0.06 -0.06)">
     <use xlink:href="#DejaVuSans-35"/>
     <use xlink:href="#DejaVuSans-32" transform="translate(63.623047 0)"/>
     <use xlink:href="#DejaVuSans-39" transform="translate(127.246094 0)"/>
     <use xlink:href="#DejaVuSans-30" transform="translate(190.869141 0)"/>
    </g>
   </g>
   <g id="text_23">
    <!-- 6000 -->
    <g transform="translate(506.976283 69.819911) scale(0.06 -0.06)">
     <use xlink:href="#DejaVuSans-36"/>
     <use xlink:href="#DejaVuSans-30" transform="translate(63.623047 0)"/>
     <use xlink:href="#DejaVuSans-30" transform="translate(127.246094 0)"/>
     <use xlink:href="#DejaVuSans-30" transform="translate(190.869141 0)"/>
    </g>
   </g>
   <g id="text_24">
    <!-- 3 -->
    <g transform="translate(427.320556 251.978254) scale(0.06 -0.06)">
     <use xlink:href="#DejaVuSans-33"/>
    </g>
   </g>
   <g id="text_25">
    <!-- 6955 -->
    <g transform="translate(413.511507 191.348871) rotate(-90) scale(0.06 -0.06)">
     <use xlink:href="#DejaVuSans-36"/>
     <use xlink:href="#DejaVuSans-39" transform="translate(63.623047 0)"/>
     <use xlink:href="#DejaVuSans-35" transform="translate(127.246094 0)"/>
     <use xlink:href="#DejaVuSans-35" transform="translate(190.869141 0)"/>
    </g>
   </g>
   <g id="text_26">
    <!-- 986 -->
    <g transform="translate(401.968018 228.381326) rotate(-90) scale(0.06 -0.06)">
     <use xlink:href="#DejaVuSans-39"/>
     <use xlink:href="#DejaVuSans-38" transform="translate(63.623047 0)"/>
     <use xlink:href="#DejaVuSans-36" transform="translate(127.246094 0)"/>
    </g>
   </g>
   <g id="patch_63">
    <path d="M 256.65592 118.080631 
L 256.65592 14.237419 
L 299.923925 14.237419 
L 299.923925 118.080631 
L 256.65592 118.080631 
z
" clip-path="url(#pea7be1c164)" style="fill: none; stroke-dasharray: 2.96,1.28; stroke-dashoffset: 0; stroke: #000000; stroke-width: 0.8; stroke-linejoin: miter"/>
   </g>
   <g id="patch_64">
    <path d="M 334.53833 115.036569 
L 334.53833 60.908941 
L 360.499133 60.908941 
L 360.499133 115.036569 
L 334.53833 115.036569 
z
" clip-path="url(#pea7be1c164)" style="fill: none; stroke-dasharray: 2.96,1.28; stroke-dashoffset: 0; stroke: #000000; stroke-width: 0.8; stroke-linejoin: miter"/>
   </g>
   <g id="patch_65">
    <path d="M 419.343619 103.924836 
L 419.343619 69.310432 
L 445.304422 69.310432 
L 445.304422 103.924836 
L 419.343619 103.924836 
z
" clip-path="url(#pea7be1c164)" style="fill: none; stroke-dasharray: 2.96,1.28; stroke-dashoffset: 0; stroke: #000000; stroke-width: 0.8; stroke-linejoin: miter"/>
   </g>
   <g id="patch_66">
    <path d="M 476.535439 85.265264 
L 476.535439 50.65086 
L 502.496242 50.65086 
L 502.496242 85.265264 
L 476.535439 85.265264 
z
" clip-path="url(#pea7be1c164)" style="fill: none; stroke-dasharray: 2.96,1.28; stroke-dashoffset: 0; stroke: #000000; stroke-width: 0.8; stroke-linejoin: miter"/>
   </g>
   <g id="patch_67">
    <path d="M 445.467101 139.796302 
L 445.467101 122.4891 
L 480.081505 122.4891 
L 480.081505 139.796302 
L 445.467101 139.796302 
z
" clip-path="url(#pea7be1c164)" style="fill: none; stroke-dasharray: 2.96,1.28; stroke-dashoffset: 0; stroke: #000000; stroke-width: 0.8; stroke-linejoin: miter"/>
   </g>
   <g id="patch_68">
    <path d="M 384.707854 170.73347 
L 384.707854 144.772667 
L 436.62946 144.772667 
L 436.62946 170.73347 
L 384.707854 170.73347 
z
" clip-path="url(#pea7be1c164)" style="fill: none; stroke-dasharray: 2.96,1.28; stroke-dashoffset: 0; stroke: #000000; stroke-width: 0.8; stroke-linejoin: miter"/>
   </g>
   <g id="patch_69">
    <path d="M 326.812038 266.562581 
L 326.812038 231.948177 
L 344.11924 231.948177 
L 344.11924 266.562581 
L 326.812038 266.562581 
z
" clip-path="url(#pea7be1c164)" style="fill: none; stroke-dasharray: 2.96,1.28; stroke-dashoffset: 0; stroke: #000000; stroke-width: 0.8; stroke-linejoin: miter"/>
   </g>
   <g id="patch_70">
    <path d="M 180.33116 100.215269 
L 180.33116 30.986461 
L 201.099802 65.600865 
z
" clip-path="url(#pea7be1c164)" style="fill: #ffffff"/>
   </g>
   <g id="patch_71">
    <path d="M 526.553253 74.079874 
L 526.553253 62.248699 
L 532.46884 68.164286 
z
" clip-path="url(#pea7be1c164)" style="fill: #f46924"/>
   </g>
   <g id="patch_72">
    <path d="M 442.38812 233.910591 
L 456.102424 233.910591 
L 449.245272 240.767743 
z
" clip-path="url(#pea7be1c164)" style="fill: #f46924"/>
   </g>
  </g>
 </g>
 <defs>
  <clipPath id="pea7be1c164">
   <rect x="7.2" y="7.2" width="698.4" height="266.4"/>
  </clipPath>
 </defs>
</svg>
